<svg viewBox="0 0 44 44" fill="none" xmlns="http://www.w3.org/2000/svg">
                        <path
                            d="M22 1C10.4032 1 1 10.4032 1 22C1 33.5968 10.4032 43 22 43C33.5968 43 43 33.5968 43 22C43 10.4032 33.5968 1 22 1Z"
                            stroke="black" stroke-width="2" stroke-miterlimit="10" />
                        <path d="M19 19H22V32" stroke="black" stroke-width="2" stroke-linecap="round"
                            stroke-linejoin="round" />
                        <path d="M17 32H27" stroke="black" stroke-width="2" stroke-miterlimit="10"
                            stroke-linecap="round" />
                        <path
                            d="M21.5 9C21.0055 9 20.5222 9.14662 20.1111 9.42133C19.7 9.69603 19.3795 10.0865 19.1903 10.5433C19.0011 11.0001 18.9516 11.5028 19.048 11.9877C19.1445 12.4727 19.3826 12.9181 19.7322 13.2678C20.0819 13.6174 20.5273 13.8555 21.0123 13.952C21.4972 14.0484 21.9999 13.9989 22.4567 13.8097C22.9135 13.6205 23.304 13.3 23.5787 12.8889C23.8534 12.4778 24 11.9945 24 11.5C24 10.837 23.7366 10.2011 23.2678 9.73223C22.7989 9.26339 22.163 9 21.5 9V9Z"
                            fill="black" />
                    </svg>