<!-- <svg width="113" height="113" viewBox="0 0 113 113" fill="none" xmlns="http://www.w3.org/2000/svg">
<rect x="0.5" y="0.5" width="112" height="112"/>
<path d="M57 43.375C57 43.0989 56.7761 42.875 56.5 42.875C56.2239 42.875 56 43.0989 56 43.375H57ZM56 69.625C56 69.9011 56.2239 70.125 56.5 70.125C56.7761 70.125 57 69.9011 57 69.625H56ZM69.625 57C69.9011 57 70.125 56.7761 70.125 56.5C70.125 56.2239 69.9011 56 69.625 56V57ZM43.375 56C43.0989 56 42.875 56.2239 42.875 56.5C42.875 56.7761 43.0989 57 43.375 57V56ZM88.5 56.5C88.5 38.8332 74.1668 24.5 56.5 24.5V25.5C73.6145 25.5 87.5 39.3855 87.5 56.5H88.5ZM56.5 24.5C38.8332 24.5 24.5 38.8332 24.5 56.5H25.5C25.5 39.3855 39.3855 25.5 56.5 25.5V24.5ZM24.5 56.5C24.5 74.1668 38.8332 88.5 56.5 88.5V87.5C39.3855 87.5 25.5 73.6145 25.5 56.5H24.5ZM56.5 88.5C74.1668 88.5 88.5 74.1668 88.5 56.5H87.5C87.5 73.6145 73.6145 87.5 56.5 87.5V88.5ZM56 43.375V69.625H57V43.375H56ZM69.625 56H43.375V57H69.625V56Z" fill="black"/>
</svg> -->

<svg width="133" height="136" viewBox="0 0 133 136" fill="none" xmlns="http://www.w3.org/2000/svg">
<rect x="0.5" y="0.5" width="132" height="135" stroke=""/>
<circle cx="67" cy="68" r="25"  stroke="grey"/>
<line x1="67.5" y1="56" x2="67.5" y2="81" stroke="grey"/>
<line x1="79" y1="68.5" x2="54" y2="68.5" stroke="grey"/>
</svg>
