<svg width="140" height="51" viewBox="0 0 140 51" fill="none" xmlns="http://www.w3.org/2000/svg">
<path d="M6.10338 3.12061V8.39551H10.369V10.2617H6.10338V23.9917C6.10338 25.1343 6.3065 25.9849 6.71275 26.5435C7.1317 27.1021 7.82359 27.3813 8.78844 27.3813C9.1693 27.3813 9.78502 27.3179 10.6356 27.1909L10.7308 29.0571C10.1341 29.2729 9.32164 29.3809 8.29332 29.3809C6.7318 29.3809 5.59557 28.9302 4.88463 28.0288C4.17369 27.1147 3.81822 25.7754 3.81822 24.0107V10.2617H0.0286713V8.39551H3.81822V3.12061H6.10338ZM27.4096 26.3911C26.0385 28.3843 23.8485 29.3809 20.8397 29.3809C18.6435 29.3809 16.974 28.7461 15.8314 27.4766C14.6889 26.1943 14.1049 24.3027 14.0795 21.8018V8.39551H16.3456V21.5161C16.3456 25.439 17.9325 27.4004 21.1063 27.4004C24.4071 27.4004 26.4955 26.0356 27.3715 23.3062V8.39551H29.6566V29H27.4477L27.4096 26.3911ZM38.204 3.12061V8.39551H42.4697V10.2617H38.204V23.9917C38.204 25.1343 38.4072 25.9849 38.8134 26.5435C39.2324 27.1021 39.9242 27.3813 40.8891 27.3813C41.27 27.3813 41.8857 27.3179 42.7363 27.1909L42.8315 29.0571C42.2348 29.2729 41.4223 29.3809 40.394 29.3809C38.8325 29.3809 37.6962 28.9302 36.9853 28.0288C36.2743 27.1147 35.9189 25.7754 35.9189 24.0107V10.2617H32.1293V8.39551H35.9189V3.12061H38.204ZM59.5102 26.3911C58.1391 28.3843 55.9492 29.3809 52.9404 29.3809C50.7441 29.3809 49.0747 28.7461 47.9321 27.4766C46.7895 26.1943 46.2055 24.3027 46.1801 21.8018V8.39551H48.4463V21.5161C48.4463 25.439 50.0332 27.4004 53.207 27.4004C56.5078 27.4004 58.5962 26.0356 59.4721 23.3062V8.39551H61.7573V29H59.5483L59.5102 26.3911ZM84.2061 18.9072C84.2061 22.0938 83.4824 24.6392 82.0352 26.5435C80.5879 28.4351 78.6455 29.3809 76.208 29.3809C73.9482 29.3809 72.1392 28.6382 70.7808 27.1528V36.9219H66.1533V8.39551H70.4189L70.6094 10.4902C71.9678 8.83984 73.8149 8.01465 76.1509 8.01465C78.6646 8.01465 80.6323 8.9541 82.0542 10.833C83.4888 12.6992 84.2061 15.2954 84.2061 18.6216V18.9072ZM79.5977 18.5073C79.5977 16.4507 79.1851 14.8193 78.3599 13.6133C77.5474 12.4072 76.3794 11.8042 74.856 11.8042C72.9644 11.8042 71.606 12.585 70.7808 14.1465V23.2871C71.6187 24.8867 72.9897 25.6865 74.894 25.6865C76.3667 25.6865 77.5156 25.0962 78.3408 23.9155C79.1787 22.7222 79.5977 20.9194 79.5977 18.5073ZM97.9903 12.623C97.3809 12.5215 96.7525 12.4707 96.105 12.4707C93.9849 12.4707 92.5567 13.2832 91.8204 14.9082V29H87.1929V8.39551H91.6109L91.7251 10.6997C92.8423 8.90967 94.3912 8.01465 96.3716 8.01465C97.0318 8.01465 97.5777 8.10352 98.0093 8.28125L97.9903 12.623ZM104.9 29H100.273V8.39551H104.9V29ZM99.9869 3.04443C99.9869 2.3335 100.209 1.74316 100.653 1.27344C101.11 0.803711 101.758 0.568848 102.596 0.568848C103.434 0.568848 104.081 0.803711 104.538 1.27344C104.995 1.74316 105.224 2.3335 105.224 3.04443C105.224 3.74268 104.995 4.32666 104.538 4.79639C104.081 5.25342 103.434 5.48193 102.596 5.48193C101.758 5.48193 101.11 5.25342 100.653 4.79639C100.209 4.32666 99.9869 3.74268 99.9869 3.04443ZM113.314 8.39551L113.447 10.7759C114.971 8.93506 116.97 8.01465 119.446 8.01465C123.737 8.01465 125.921 10.4712 125.997 15.3843V29H121.369V15.6509C121.369 14.3433 121.084 13.3784 120.512 12.7563C119.954 12.1216 119.033 11.8042 117.751 11.8042C115.885 11.8042 114.495 12.6484 113.581 14.3369V29H108.953V8.39551H113.314ZM135.591 3.38721V8.39551H139.229V11.8232H135.591V23.3252C135.591 24.1123 135.744 24.6836 136.048 25.0391C136.366 25.3818 136.924 25.5532 137.724 25.5532C138.257 25.5532 138.797 25.4897 139.343 25.3628V28.9429C138.289 29.2349 137.274 29.3809 136.296 29.3809C132.741 29.3809 130.964 27.4194 130.964 23.4966V11.8232H127.574V8.39551H130.964V3.38721H135.591Z" fill="#656564"/>
<path d="M5.73535 39.6973H5.95117C6.66634 39.7015 7.31169 39.8602 7.88721 40.1733C8.46273 40.4865 8.9113 40.9245 9.23291 41.4873C9.55452 42.0459 9.71533 42.668 9.71533 43.3535C9.71533 44.0433 9.55664 44.6675 9.23926 45.2261C8.92188 45.7847 8.47542 46.2227 7.8999 46.54C7.32861 46.8574 6.68538 47.0203 5.97021 47.0288H5.73535V48.3809H4.97363V47.0288H4.7959C4.06803 47.0288 3.41423 46.8743 2.83447 46.5654C2.25895 46.2523 1.80827 45.8143 1.48242 45.2515C1.16081 44.6886 1 44.0602 1 43.3662C1 42.6764 1.16081 42.0501 1.48242 41.4873C1.80827 40.9202 2.26107 40.4801 2.84082 40.167C3.42057 39.8538 4.07227 39.6973 4.7959 39.6973H4.97363V38.377H5.73535V39.6973ZM5.73535 40.3447V46.3877H5.91943C6.84196 46.3877 7.57829 46.1105 8.12842 45.5562C8.67855 45.0018 8.95361 44.2676 8.95361 43.3535C8.95361 42.486 8.69759 41.7793 8.18555 41.2334C7.6735 40.6875 6.98796 40.3934 6.12891 40.3511L5.73535 40.3447ZM4.80225 40.3447C3.87549 40.3447 3.13704 40.6198 2.58691 41.1699C2.03678 41.7201 1.76172 42.4521 1.76172 43.3662C1.76172 44.2507 2.01774 44.9637 2.52979 45.5054C3.04183 46.047 3.72949 46.339 4.59277 46.3813L4.97363 46.3877V40.3447H4.80225Z" fill="black"/>
<path d="M10.438 44.4644C10.438 43.8042 10.565 43.2096 10.8189 42.6807C11.077 42.1517 11.4388 41.7412 11.9043 41.4492C12.374 41.153 12.9051 41.0049 13.4976 41.0049C14.4116 41.0049 15.1522 41.3265 15.7192 41.9697C16.2863 42.6087 16.5698 43.4572 16.5698 44.5151V44.6738C16.5698 45.3382 16.4408 45.937 16.1826 46.4702C15.9287 46.9992 15.569 47.4076 15.1035 47.6953C14.638 47.9831 14.1069 48.127 13.5103 48.127C12.6004 48.127 11.8599 47.8075 11.2886 47.1685C10.7215 46.5252 10.438 45.6746 10.438 44.6167V44.4644ZM11.1997 44.6738C11.1997 45.4948 11.4113 46.1698 11.8345 46.6987C12.2619 47.2235 12.8205 47.4858 13.5103 47.4858C14.1958 47.4858 14.7502 47.2235 15.1734 46.6987C15.6008 46.1698 15.8145 45.4736 15.8145 44.6104V44.4644C15.8145 43.9396 15.7171 43.4593 15.5225 43.0234C15.3278 42.5876 15.0549 42.2511 14.7036 42.0142C14.3524 41.7729 13.9504 41.6523 13.4976 41.6523C12.8205 41.6523 12.2682 41.9189 11.8408 42.4521C11.4134 42.9811 11.1997 43.6751 11.1997 44.5342V44.6738Z" fill="black"/>
<path d="M22.6245 41.7793H20.1236V48H19.3618V41.7793H16.9561V41.1318H22.6245V41.7793Z" fill="black"/>
<path d="M22.8775 44.4644C22.8775 43.8042 23.0044 43.2096 23.2583 42.6807C23.5165 42.1517 23.8783 41.7412 24.3438 41.4492C24.8135 41.153 25.3446 41.0049 25.937 41.0049C26.8511 41.0049 27.5917 41.3265 28.1587 41.9697C28.7258 42.6087 29.0093 43.4572 29.0093 44.5151V44.6738C29.0093 45.3382 28.8802 45.937 28.6221 46.4702C28.3682 46.9992 28.0085 47.4076 27.543 47.6953C27.0775 47.9831 26.5464 48.127 25.9497 48.127C25.0399 48.127 24.2994 47.8075 23.7281 47.1685C23.161 46.5252 22.8775 45.6746 22.8775 44.6167V44.4644ZM23.6392 44.6738C23.6392 45.4948 23.8508 46.1698 24.274 46.6987C24.7014 47.2235 25.26 47.4858 25.9497 47.4858C26.6353 47.4858 27.1897 47.2235 27.6128 46.6987C28.0402 46.1698 28.2539 45.4736 28.2539 44.6104V44.4644C28.2539 43.9396 28.1566 43.4593 27.9619 43.0234C27.7673 42.5876 27.4943 42.2511 27.1431 42.0142C26.7919 41.7729 26.3898 41.6523 25.937 41.6523C25.26 41.6523 24.7077 41.9189 24.2803 42.4521C23.8529 42.9811 23.6392 43.6751 23.6392 44.5342V44.6738Z" fill="black"/>
<path d="M35.5464 48H34.7847V41.7856H31.084V48H30.3223V41.1318H35.5464V48Z" fill="black"/>
<path d="M39.9317 48.127C39.3477 48.127 38.8187 47.9831 38.3448 47.6953C37.8751 47.4076 37.509 47.0076 37.2466 46.4956C36.9843 45.9793 36.8531 45.4017 36.8531 44.7627V44.4897C36.8531 43.8296 36.98 43.235 37.2339 42.7061C37.4921 42.1771 37.8497 41.7624 38.3067 41.4619C38.7637 41.1572 39.2588 41.0049 39.792 41.0049C40.6257 41.0049 41.2859 41.2905 41.7725 41.8618C42.2634 42.4289 42.5088 43.2054 42.5088 44.1914V44.6167H37.6085V44.7627C37.6085 45.5413 37.8306 46.1909 38.275 46.7114C38.7235 47.2277 39.2864 47.4858 39.9634 47.4858C40.3697 47.4858 40.7273 47.4118 41.0362 47.2637C41.3493 47.1156 41.6329 46.8786 41.8868 46.5527L42.3629 46.9146C41.8043 47.7228 40.9939 48.127 39.9317 48.127ZM39.792 41.6523C39.2208 41.6523 38.7383 41.8618 38.3448 42.2808C37.9555 42.6997 37.7185 43.2625 37.6338 43.9692H41.7535V43.8867C41.7323 43.2266 41.544 42.6891 41.1885 42.2744C40.8331 41.8597 40.3676 41.6523 39.792 41.6523Z" fill="black"/>
<path d="M48.5635 48H47.8018V45.1118C47.1755 45.3403 46.5767 45.4546 46.0054 45.4546C45.0956 45.4546 44.4355 45.2557 44.025 44.8579C43.6145 44.4559 43.4008 43.8317 43.3839 42.9854V41.1318H44.1392V42.9473C44.1477 43.6032 44.2916 44.0771 44.5709 44.3691C44.8544 44.6569 45.3326 44.8008 46.0054 44.8008C46.619 44.7839 47.2178 44.6738 47.8018 44.4707V41.1318H48.5635V48Z" fill="black"/>
<path d="M54.6182 48C54.5421 47.7842 54.4934 47.4647 54.4722 47.0415C54.2056 47.3885 53.865 47.6572 53.4503 47.8477C53.0398 48.0339 52.6039 48.127 52.1427 48.127C51.4825 48.127 50.9472 47.9429 50.5367 47.5747C50.1305 47.2065 49.9273 46.741 49.9273 46.1782C49.9273 45.5096 50.2045 44.9806 50.7589 44.5913C51.3175 44.202 52.094 44.0073 53.0885 44.0073H54.4659V43.2266C54.4659 42.7357 54.3136 42.3506 54.0089 42.0713C53.7084 41.7878 53.2683 41.646 52.6886 41.646C52.1596 41.646 51.7216 41.7814 51.3746 42.0522C51.0276 42.3231 50.8541 42.6489 50.8541 43.0298L50.0924 43.0234C50.0924 42.4775 50.3463 42.0057 50.8541 41.6079C51.3619 41.2059 51.9861 41.0049 52.7266 41.0049C53.4926 41.0049 54.0956 41.1974 54.5357 41.5825C54.9801 41.9634 55.2086 42.4966 55.2213 43.1821V46.4321C55.2213 47.0965 55.2911 47.5938 55.4307 47.9238V48H54.6182ZM52.2315 47.4541C52.7393 47.4541 53.1921 47.3314 53.5899 47.0859C53.9919 46.8405 54.2839 46.5125 54.4659 46.1021V44.5913H53.1075C52.35 44.5998 51.7576 44.7394 51.3302 45.0103C50.9027 45.2769 50.689 45.645 50.689 46.1147C50.689 46.4998 50.8308 46.8193 51.1143 47.0732C51.4021 47.3271 51.7745 47.4541 52.2315 47.4541Z" fill="black"/>
<path d="M61.7711 41.7793H59.2701V48H58.5084V41.7793H56.1026V41.1318H61.7711V41.7793Z" fill="black"/>
<path d="M63.5475 43.6265H65.5279C66.0358 43.6265 66.4801 43.7196 66.8609 43.9058C67.246 44.0877 67.5359 44.3416 67.7306 44.6675C67.9295 44.9933 68.0289 45.3721 68.0289 45.8037C68.0289 46.4681 67.8004 47.0013 67.3434 47.4033C66.8906 47.8011 66.277 48 65.5025 48H62.7921V41.1318H63.5475V43.6265ZM63.5475 44.2739V47.3589H65.5152C66.0611 47.3589 66.4886 47.2214 66.7975 46.9463C67.1106 46.6712 67.2672 46.2946 67.2672 45.8164C67.2672 45.3594 67.1149 44.9912 66.8102 44.7119C66.5097 44.4284 66.0971 44.2824 65.5724 44.2739H63.5475Z" fill="black"/>
<path d="M74.7428 47.4858C75.2718 47.4858 75.714 47.3377 76.0695 47.0415C76.4292 46.741 76.6238 46.3538 76.6535 45.8799H77.3834C77.3623 46.2988 77.2311 46.6818 76.9899 47.0288C76.7487 47.3716 76.4271 47.6403 76.025 47.835C75.6272 48.0296 75.1998 48.127 74.7428 48.127C73.8414 48.127 73.1263 47.8138 72.5973 47.1875C72.0726 46.5612 71.8102 45.7191 71.8102 44.6611V44.4326C71.8102 43.7555 71.9287 43.1567 72.1657 42.6362C72.4026 42.1157 72.7412 41.7137 73.1813 41.4302C73.6256 41.1466 74.144 41.0049 74.7365 41.0049C75.4897 41.0049 76.1097 41.2292 76.5963 41.6777C77.0872 42.1263 77.3496 42.7166 77.3834 43.4487H76.6535C76.6196 42.9113 76.4249 42.4775 76.0695 42.1475C75.7182 41.8174 75.2739 41.6523 74.7365 41.6523C74.0509 41.6523 73.5177 41.8999 73.1368 42.395C72.7602 42.8901 72.5719 43.5841 72.5719 44.4771V44.6992C72.5719 45.5752 72.7602 46.2586 73.1368 46.7495C73.5177 47.2404 74.053 47.4858 74.7428 47.4858Z" fill="black"/>
<path d="M81.2853 47.3589L81.6217 46.9209C82.1549 46.1973 82.4617 45.1393 82.5421 43.7471L82.6628 41.1318H86.7189V47.3589H87.4298V50.0186H86.6745V48H81.5138V50.0186H80.7838L80.7902 47.3589H81.2853ZM82.1613 47.3589H85.9572V41.8428H83.3864L83.3039 43.6265C83.2277 45.2642 82.8468 46.5083 82.1613 47.3589Z" fill="black"/>
<path d="M88.1652 44.4644C88.1652 43.8042 88.2922 43.2096 88.5461 42.6807C88.8042 42.1517 89.166 41.7412 89.6315 41.4492C90.1012 41.153 90.6323 41.0049 91.2248 41.0049C92.1388 41.0049 92.8794 41.3265 93.4464 41.9697C94.0135 42.6087 94.297 43.4572 94.297 44.5151V44.6738C94.297 45.3382 94.168 45.937 93.9098 46.4702C93.6559 46.9992 93.2962 47.4076 92.8307 47.6953C92.3652 47.9831 91.8341 48.127 91.2375 48.127C90.3276 48.127 89.5871 47.8075 89.0158 47.1685C88.4487 46.5252 88.1652 45.6746 88.1652 44.6167V44.4644ZM88.9269 44.6738C88.9269 45.4948 89.1385 46.1698 89.5617 46.6987C89.9891 47.2235 90.5477 47.4858 91.2375 47.4858C91.923 47.4858 92.4774 47.2235 92.9006 46.6987C93.328 46.1698 93.5417 45.4736 93.5417 44.6104V44.4644C93.5417 43.9396 93.4443 43.4593 93.2497 43.0234C93.055 42.5876 92.7821 42.2511 92.4308 42.0142C92.0796 41.7729 91.6776 41.6523 91.2248 41.6523C90.5477 41.6523 89.9954 41.9189 89.568 42.4521C89.1406 42.9811 88.9269 43.6751 88.9269 44.5342V44.6738Z" fill="black"/>
<path d="M98.0983 47.4858C98.6273 47.4858 99.0695 47.3377 99.425 47.0415C99.7847 46.741 99.9793 46.3538 100.009 45.8799H100.739C100.718 46.2988 100.587 46.6818 100.345 47.0288C100.104 47.3716 99.7826 47.6403 99.3805 47.835C98.9828 48.0296 98.5554 48.127 98.0983 48.127C97.197 48.127 96.4818 47.8138 95.9528 47.1875C95.4281 46.5612 95.1657 45.7191 95.1657 44.6611V44.4326C95.1657 43.7555 95.2842 43.1567 95.5212 42.6362C95.7582 42.1157 96.0967 41.7137 96.5368 41.4302C96.9811 41.1466 97.4995 41.0049 98.092 41.0049C98.8452 41.0049 99.4652 41.2292 99.9518 41.6777C100.443 42.1263 100.705 42.7166 100.739 43.4487H100.009C99.9751 42.9113 99.7804 42.4775 99.425 42.1475C99.0737 41.8174 98.6294 41.6523 98.092 41.6523C97.4064 41.6523 96.8732 41.8999 96.4924 42.395C96.1157 42.8901 95.9274 43.5841 95.9274 44.4771V44.6992C95.9274 45.5752 96.1157 46.2586 96.4924 46.7495C96.8732 47.2404 97.4085 47.4858 98.0983 47.4858Z" fill="black"/>
<path d="M106.883 41.7793H104.382V48H103.62V41.7793H101.214V41.1318H106.883V41.7793Z" fill="black"/>
<path d="M112.055 48C111.979 47.7842 111.93 47.4647 111.909 47.0415C111.642 47.3885 111.302 47.6572 110.887 47.8477C110.476 48.0339 110.041 48.127 109.579 48.127C108.919 48.127 108.384 47.9429 107.973 47.5747C107.567 47.2065 107.364 46.741 107.364 46.1782C107.364 45.5096 107.641 44.9806 108.196 44.5913C108.754 44.202 109.531 44.0073 110.525 44.0073H111.903V43.2266C111.903 42.7357 111.75 42.3506 111.446 42.0713C111.145 41.7878 110.705 41.646 110.125 41.646C109.596 41.646 109.158 41.7814 108.811 42.0522C108.464 42.3231 108.291 42.6489 108.291 43.0298L107.529 43.0234C107.529 42.4775 107.783 42.0057 108.291 41.6079C108.799 41.2059 109.423 41.0049 110.163 41.0049C110.929 41.0049 111.532 41.1974 111.972 41.5825C112.417 41.9634 112.645 42.4966 112.658 43.1821V46.4321C112.658 47.0965 112.728 47.5938 112.867 47.9238V48H112.055ZM109.668 47.4541C110.176 47.4541 110.629 47.3314 111.027 47.0859C111.429 46.8405 111.721 46.5125 111.903 46.1021V44.5913H110.544C109.787 44.5998 109.194 44.7394 108.767 45.0103C108.339 45.2769 108.126 45.645 108.126 46.1147C108.126 46.4998 108.267 46.8193 108.551 47.0732C108.839 47.3271 109.211 47.4541 109.668 47.4541Z" fill="black"/>
<path d="M114.46 48V41.1318H116.98C117.851 41.1318 118.52 41.2884 118.986 41.6016C119.451 41.9105 119.684 42.3654 119.684 42.9663C119.684 43.3091 119.58 43.6159 119.373 43.8867C119.165 44.1533 118.863 44.348 118.465 44.4707C118.914 44.5553 119.273 44.7479 119.544 45.0483C119.819 45.3488 119.957 45.6979 119.957 46.0957C119.957 46.7008 119.732 47.1706 119.284 47.5049C118.84 47.835 118.209 48 117.392 48H114.46ZM115.215 44.8389V47.3652H117.418C117.989 47.3652 118.429 47.2552 118.738 47.0352C119.047 46.8151 119.201 46.4977 119.201 46.083C119.201 45.7021 119.047 45.3996 118.738 45.1753C118.429 44.951 117.989 44.8389 117.418 44.8389H115.215ZM115.215 44.2041H117.138C118.332 44.1872 118.928 43.7809 118.928 42.9854C118.928 42.5664 118.763 42.2617 118.433 42.0713C118.107 41.8766 117.623 41.7793 116.98 41.7793H115.215V44.2041Z" fill="black"/>
<path d="M123.206 44.8516H122.152V48H121.384V41.1318H122.152V44.1787H123.193L125.713 41.1318H126.672L123.853 44.4644L126.983 48H125.98L123.206 44.8516Z" fill="black"/>
<path d="M127.21 44.4644C127.21 43.8042 127.337 43.2096 127.591 42.6807C127.849 42.1517 128.211 41.7412 128.677 41.4492C129.146 41.153 129.677 41.0049 130.27 41.0049C131.184 41.0049 131.924 41.3265 132.491 41.9697C133.059 42.6087 133.342 43.4572 133.342 44.5151V44.6738C133.342 45.3382 133.213 45.937 132.955 46.4702C132.701 46.9992 132.341 47.4076 131.876 47.6953C131.41 47.9831 130.879 48.127 130.282 48.127C129.373 48.127 128.632 47.8075 128.061 47.1685C127.494 46.5252 127.21 45.6746 127.21 44.6167V44.4644ZM127.972 44.6738C127.972 45.4948 128.184 46.1698 128.607 46.6987C129.034 47.2235 129.593 47.4858 130.282 47.4858C130.968 47.4858 131.522 47.2235 131.946 46.6987C132.373 46.1698 132.587 45.4736 132.587 44.6104V44.4644C132.587 43.9396 132.489 43.4593 132.295 43.0234C132.1 42.5876 131.827 42.2511 131.476 42.0142C131.125 41.7729 130.723 41.6523 130.27 41.6523C129.593 41.6523 129.04 41.9189 128.613 42.4521C128.186 42.9811 127.972 43.6751 127.972 44.5342V44.6738Z" fill="black"/>
<path d="M139.117 41.1318H139.879V48H139.117V42.3569L135.41 48H134.655V41.1318H135.41V46.7812L139.117 41.1318ZM139.079 38.6562C139.079 39.1429 138.912 39.5365 138.578 39.8369C138.248 40.1374 137.803 40.2876 137.245 40.2876C136.695 40.2876 136.25 40.1395 135.912 39.8433C135.578 39.5428 135.41 39.1471 135.41 38.6562H136.058C136.058 39.0075 136.162 39.2762 136.369 39.4624C136.58 39.6486 136.872 39.7417 137.245 39.7417C137.617 39.7417 137.907 39.6444 138.115 39.4497C138.326 39.255 138.432 38.9906 138.432 38.6562H139.079Z" fill="black"/>
</svg>
